<svg xmlns:xlink="http://www.w3.org/1999/xlink" xmlns="http://www.w3.org/2000/svg" width="338" height="100" viewBox="0 0 338 100" fill="#424750">
<path d="M54.7868 0H45.2227C43.1386 0 41.4065 1.53963 41.0735 3.59248C37.933 22.7713 22.7827 37.911 3.58776 41.0568C1.53218 41.399 0 43.1192 0 45.2005V54.5334C0 56.6147 1.53218 58.3349 3.58776 58.6771C22.8683 61.8419 38.0567 77.0956 41.1115 96.3885C41.4351 98.4509 43.1671 100 45.2608 100H54.7393C56.8329 100 58.5649 98.4509 58.8885 96.3885C61.9338 77.0956 77.1317 61.8419 96.4123 58.6771C98.4678 58.3444 100 56.6147 100 54.5334V45.2005C100 43.1192 98.4678 41.399 96.4123 41.0568C77.2174 37.9015 62.067 22.7618 58.9265 3.59248C58.5935 1.53963 56.8615 0 54.7773 0M50.0095 72.9709C44.5185 63.3625 36.5436 55.3602 26.9414 49.8574C36.5436 44.3547 44.5185 36.3524 50 26.744C55.4815 36.3524 63.4564 44.3547 73.0586 49.8574C63.4564 55.3602 55.4815 63.3625 50 72.9709"></path>
<path d="M319.21 42.8572H297.776C295.806 42.8572 294.203 41.2538 294.203 39.2834C294.203 37.3129 295.806 35.7095 297.776 35.7095H321.74C322.368 35.7095 322.977 35.4584 323.421 35.0141L329.226 29.3153C329.671 28.8709 329.922 28.2624 329.922 27.6346V24.3409C329.922 22.7278 328.618 21.4238 327.005 21.4238H298.114C288.436 21.4238 280.187 28.9482 279.849 38.6266C279.492 48.7879 287.615 57.1429 297.699 57.1429H319.055C320.919 57.1429 322.59 58.5048 322.764 60.3594C322.967 62.494 321.296 64.2809 319.21 64.2809H287.982C287.354 64.2809 286.794 64.4258 286.34 64.8701L280.632 70.6752C280.187 71.1195 279.936 71.7281 279.936 72.3559V75.6496C279.936 77.2627 281.24 78.5666 282.853 78.5666H318.785C328.463 78.5666 336.712 71.0326 337.06 61.3543C337.417 51.193 329.294 42.8476 319.21 42.8476"></path>
<path d="M269.901 21.4818H261.295C259.73 21.4818 258.465 22.7472 258.465 24.3119V64.252H258.426L234.163 64.2617C231.806 64.2617 229.893 62.3492 229.893 59.9924V24.3023C229.893 22.7375 228.628 21.4722 227.063 21.4722H218.467C216.902 21.4722 215.627 22.7375 215.627 24.3023V57.1526C215.627 68.956 225.199 78.5281 237.002 78.5281H250.602C251.076 78.5281 251.53 78.3349 251.868 78.0065L258.436 71.4287H258.445V75.698C258.445 77.2627 259.711 78.5281 261.276 78.5281H269.882C271.446 78.5281 272.712 77.2627 272.712 75.698V24.3023C272.712 22.7375 271.446 21.4722 269.882 21.4722"></path>
<path d="M132.83 100H141.436C143.001 100 144.276 98.7348 144.276 97.1701V78.5861H165.748C177.561 78.5861 187.143 69.0044 187.143 57.1914V42.8767C187.143 31.054 177.561 21.4819 165.748 21.4819H152.129C151.646 21.4819 151.192 21.6655 150.864 22.0035L144.286 28.5813H144.276V24.312C144.276 22.7473 143.001 21.4819 141.436 21.4819H132.83C131.265 21.4819 130 22.7473 130 24.312V97.1701C130 98.7348 131.275 100 132.83 100ZM168.597 35.758C170.954 35.758 172.876 37.6705 172.876 40.0273V60.0408C172.876 62.3976 170.954 64.3101 168.597 64.3101H144.315V35.758H168.597Z"></path>
<path d="M194.396 2.81078V75.7654C194.396 77.3205 195.662 78.5762 197.207 78.5762H205.765C207.32 78.5762 208.576 77.3109 208.576 75.7654V2.81078C208.576 1.25567 207.311 0 205.765 0H197.207C195.652 0 194.396 1.26533 194.396 2.81078Z"></path>
</svg>